<svg width="178" height="145" viewBox="0 0 178 145" fill="none" xmlns="http://www.w3.org/2000/svg">
<ellipse opacity="0.1" cx="88.9971" cy="139.209" rx="89" ry="5.34" fill="#7C7B91"/>
<path d="M31.4177 36.4758H56.4078H58.7162H85.241H87.5494H114.075H116.384H141.373C143.496 36.4758 145.217 38.1974 145.217 40.3202V56.6007V58.9092V76.7257V79.0341V96.8519V99.159V115.44C145.217 117.564 143.496 119.284 141.373 119.284H116.383H114.074H87.5481H85.2397H58.7136H56.4052H31.4164C29.2936 119.284 27.5721 117.564 27.5721 115.44V99.1577V96.8506V79.0341V76.7257V58.9092V56.6007V40.3202C27.5734 38.1974 29.2949 36.4758 31.4177 36.4758ZM87.5494 58.9092V76.7257H114.075V58.9092H87.5494ZM114.075 56.6007V38.7843H87.5494V56.6007H114.075ZM87.5494 79.0341V96.8519H114.075V79.0341H87.5494ZM87.5494 99.1577V116.975H114.075V99.1577H87.5494ZM58.7149 79.0341V96.8519H85.241V79.0341H58.7149ZM85.241 76.7257V58.9092H58.7149V76.7257H85.241ZM58.7149 99.1577V116.975H85.241V99.1577H58.7149ZM58.7149 56.6007H85.241V38.7843H58.7149V56.6007ZM142.91 40.3202C142.91 39.4744 142.224 38.7882 141.378 38.7843H116.383V56.6007H142.91V40.3202ZM142.91 58.9092H116.383V76.7257H142.91V58.9092ZM142.91 79.0341H116.383V96.8519H142.91V79.0341ZM142.91 115.438V99.1577H116.383V116.975H141.378C142.224 116.972 142.91 116.285 142.91 115.438ZM29.8818 115.438C29.8818 116.284 30.5667 116.972 31.4138 116.975H56.4078V99.1577H29.8818V115.438ZM29.8818 96.8519H56.4078V79.0341H29.8818V96.8519ZM29.8818 76.7257H56.4078V58.9092H29.8818V76.7257ZM29.8818 56.6007H56.4078V38.7843H31.4138C30.568 38.7882 29.8818 39.4744 29.8818 40.3202V56.6007Z" fill="#B0B0BD"/>
<path d="M121.938 42.7463H137.364C138 42.7463 138.518 43.264 138.518 43.9006V51.4886C138.518 52.1252 138 52.6428 137.364 52.6428H121.938C121.301 52.6428 120.784 52.1252 120.784 51.4886V43.9006C120.785 43.2627 121.301 42.7463 121.938 42.7463Z" fill="#B0B0BD"/>
<path d="M121.938 62.8645H137.364C138 62.8645 138.518 63.3795 138.518 64.0174V71.6054C138.518 72.242 138 72.7583 137.364 72.7583H121.938C121.301 72.7583 120.784 72.242 120.784 71.6054V64.0174C120.785 63.3795 121.301 62.8645 121.938 62.8645Z" fill="#B0B0BD"/>
<path d="M121.938 82.9998H137.364C138 82.9998 138.518 83.5161 138.518 84.154V91.742C138.518 92.3786 138 92.8962 137.364 92.8962H121.938C121.301 92.8962 120.784 92.3786 120.784 91.742V84.154C120.785 83.5161 121.301 82.9998 121.938 82.9998Z" fill="#B0B0BD"/>
<path d="M121.938 103.118H137.364C138 103.118 138.518 103.634 138.518 104.272V111.86C138.518 112.496 138 113.014 137.364 113.014H121.938C121.301 113.014 120.784 112.496 120.784 111.86V104.272C120.785 103.633 121.301 103.118 121.938 103.118Z" fill="#B0B0BD"/>
<path d="M93.0959 42.7463H108.522C109.158 42.7463 109.676 43.264 109.676 43.9006V51.4886C109.676 52.1252 109.158 52.6428 108.522 52.6428H93.0959C92.4593 52.6428 91.9417 52.1252 91.9417 51.4886V43.9006C91.9417 43.2627 92.4593 42.7463 93.0959 42.7463Z" fill="#B0B0BD"/>
<path d="M79.6793 52.6428H64.2536C63.617 52.6428 63.0994 52.1252 63.0994 51.4886V43.9006C63.0994 43.264 63.617 42.7463 64.2536 42.7463H79.6793C80.3159 42.7463 80.8335 43.264 80.8335 43.9006V51.4886C80.8335 52.1252 80.3159 52.6428 79.6793 52.6428Z" fill="#B0B0BD"/>
<path d="M35.4268 42.7463H50.8512C51.4877 42.7463 52.0054 43.264 52.0054 43.9006V51.4886C52.0054 52.1252 51.4877 52.6428 50.8512 52.6428H35.4255C34.7889 52.6428 34.2712 52.1252 34.2712 51.4886V43.9006C34.2726 43.2627 34.7889 42.7463 35.4268 42.7463Z" fill="#B0B0BD"/>
<path d="M4.32321 77.6513C4.32321 90.1165 14.4282 100.221 26.8934 100.221C39.3585 100.221 49.4635 90.1165 49.4635 77.6513C49.4635 65.1862 39.3585 55.0811 26.8934 55.0811C14.4282 55.0811 4.32321 65.1862 4.32321 77.6513Z" fill="white" stroke="#B0B0BD" stroke-width="3.22431"/>
<path d="M31.7607 65.7724C31.7607 63.1342 29.5954 60.9956 26.9243 60.9956C24.2532 60.9956 22.0878 63.1342 22.0878 65.7724V77.2366C22.0878 79.8747 24.2532 82.0133 26.9243 82.0133C29.5954 82.0133 31.7607 79.8747 31.7607 77.2366V65.7724Z" fill="#B0B0BD"/>
<path d="M26.9243 95.3882C29.5954 95.3882 31.7607 93.2496 31.7607 90.6115C31.7607 87.9733 29.5954 85.8347 26.9243 85.8347C24.2532 85.8347 22.0878 87.9733 22.0878 90.6115C22.0878 93.2496 24.2532 95.3882 26.9243 95.3882Z" fill="#B0B0BD"/>
<rect width="3.92146" height="14.3787" rx="1.96073" transform="matrix(-1 0 0 1 28.8562 63.9263)" fill="white"/>
<circle cx="1.96073" cy="1.96073" r="1.96073" transform="matrix(-1 0 0 1 28.8562 88.7634)" fill="white"/>
<rect width="7.84289" height="27.4501" rx="3.92144" transform="matrix(-1 0 0 1 146.141 5.76196)" fill="#B0B0BD"/>
<rect width="3.48572" height="20.9143" rx="1.74286" transform="matrix(-1 0 0 1 143.951 9.02588)" fill="white"/>
<rect width="7.84289" height="27.4501" rx="3.92144" transform="matrix(0 -1 -1 0 174.624 44.3206)" fill="#B0B0BD"/>
<rect width="3.48572" height="20.9143" rx="1.74286" transform="matrix(0 -1 -1 0 171.343 42.1411)" fill="white"/>
</svg>
