<svg width="82" height="82" viewBox="0 0 82 82" fill="none" xmlns="http://www.w3.org/2000/svg">
<ellipse opacity="0.1" cx="41" cy="79.54" rx="41" ry="2.46" fill="#7C7B91"/>
<path fill-rule="evenodd" clip-rule="evenodd" d="M19.6803 20.4998C19.6803 17.7826 21.883 15.5798 24.6003 15.5798H47.5256C47.6871 15.5798 47.8478 15.5878 48.0071 15.6034V26.6132C48.0071 28.4247 49.4756 29.8932 51.2871 29.8932H61.5003V50.284C60.7078 50.111 59.8847 50.0198 59.0403 50.0198C52.7001 50.0198 47.5603 55.1596 47.5603 61.4998C47.5603 63.3767 48.0107 65.1484 48.8093 66.7127H24.6003C21.883 66.7127 19.6803 64.5099 19.6803 61.7927V20.4998ZM49.8291 68.3527H24.6003C20.9773 68.3527 18.0403 65.4157 18.0403 61.7927V20.4998C18.0403 16.8768 20.9773 13.9398 24.6003 13.9398H47.5256C49.2654 13.9398 50.9339 14.631 52.1642 15.8612L61.2189 24.9159C62.4491 26.1462 63.1403 27.8147 63.1403 29.5545V29.8349L63.1405 29.8932L63.1403 50.7736C67.4557 52.4241 70.5203 56.6041 70.5203 61.4998C70.5203 67.84 65.3805 72.9798 59.0403 72.9798C55.2687 72.9798 51.9219 71.161 49.8291 68.3527ZM27.0603 41.4098C27.0603 40.2776 27.9781 39.3598 29.1103 39.3598H41.4103C42.5425 39.3598 43.4603 40.2776 43.4603 41.4098C43.4603 42.542 42.5425 43.4598 41.4103 43.4598H29.1103C27.9781 43.4598 27.0603 42.542 27.0603 41.4098ZM29.1103 40.9998C28.8838 40.9998 28.7003 41.1834 28.7003 41.4098C28.7003 41.6363 28.8838 41.8198 29.1103 41.8198H41.4103C41.6367 41.8198 41.8203 41.6363 41.8203 41.4098C41.8203 41.1834 41.6367 40.9998 41.4103 40.9998H29.1103ZM29.1103 45.9198C27.9781 45.9198 27.0603 46.8376 27.0603 47.9698C27.0603 49.102 27.9781 50.0198 29.1103 50.0198H52.0703C53.2025 50.0198 54.1203 49.102 54.1203 47.9698C54.1203 46.8376 53.2025 45.9198 52.0703 45.9198H29.1103ZM28.7003 47.9698C28.7003 47.7434 28.8838 47.5598 29.1103 47.5598H52.0703C52.2967 47.5598 52.4803 47.7434 52.4803 47.9698C52.4803 48.1963 52.2967 48.3798 52.0703 48.3798H29.1103C28.8838 48.3798 28.7003 48.1963 28.7003 47.9698ZM65.6672 20.6849C65.1289 19.9207 64.1593 19.5907 63.2665 19.8677C61.8692 20.3013 61.3007 21.9714 62.1433 23.1674L63.9303 25.7041C64.4842 26.4903 64.784 27.4273 64.7893 28.3889L64.8068 31.5063C64.8134 32.6987 65.7847 33.6603 66.9771 33.655C68.1709 33.6498 69.1342 32.6774 69.1283 31.4836L69.1116 28.0977C69.1034 26.4433 68.5882 24.8313 67.6355 23.4788L65.6672 20.6849ZM63.7525 21.434C63.966 21.3678 64.1978 21.4467 64.3265 21.6294L66.2948 24.4233C67.0544 25.5016 67.4651 26.7868 67.4716 28.1058L67.4883 31.4917C67.4897 31.7794 67.2576 32.0138 66.9698 32.0151C66.6824 32.0163 66.4483 31.7846 66.4467 31.4972L66.4293 28.3798C66.4221 27.0831 66.0179 25.8197 65.2711 24.7596L63.484 22.2229C63.2826 21.937 63.4185 21.5377 63.7525 21.434ZM49.2003 61.4998C49.2003 56.0653 53.6058 51.6598 59.0403 51.6598C64.4748 51.6598 68.8803 56.0653 68.8803 61.4998C68.8803 66.9343 64.4748 71.3398 59.0403 71.3398C53.6058 71.3398 49.2003 66.9343 49.2003 61.4998ZM56.9903 56.1698C56.9903 55.0376 57.9081 54.1198 59.0403 54.1198C60.1725 54.1198 61.0903 55.0376 61.0903 56.1698V61.0898C61.0903 62.222 60.1725 63.1398 59.0403 63.1398C57.9081 63.1398 56.9903 62.222 56.9903 61.0898V56.1698ZM59.0403 55.7598C58.8139 55.7598 58.6303 55.9434 58.6303 56.1698V61.0898C58.6303 61.3163 58.8139 61.4998 59.0403 61.4998C59.2667 61.4998 59.4503 61.3163 59.4503 61.0898V56.1698C59.4503 55.9434 59.2667 55.7598 59.0403 55.7598ZM59.0403 68.8798C57.9081 68.8798 56.9903 67.962 56.9903 66.8298C56.9903 65.6976 57.9081 64.7798 59.0403 64.7798C60.1725 64.7798 61.0903 65.6976 61.0903 66.8298C61.0903 67.962 60.1725 68.8798 59.0403 68.8798ZM58.6303 66.8298C58.6303 67.0563 58.8139 67.2398 59.0403 67.2398C59.2667 67.2398 59.4503 67.0563 59.4503 66.8298C59.4503 66.6034 59.2667 66.4198 59.0403 66.4198C58.8139 66.4198 58.6303 66.6034 58.6303 66.8298Z" fill="#7C7B91"/>
<path d="M30.3021 36.2088C30.3645 36.2713 30.463 36.3025 30.5976 36.3025C30.7129 36.3025 30.797 36.2713 30.8498 36.2088C30.9075 36.1464 30.9363 36.0479 30.9363 35.9134V35.3296C31.3831 35.2815 31.7891 35.1542 32.1543 34.9476C32.5195 34.7362 32.8125 34.4287 33.0336 34.0251C33.2594 33.6167 33.3723 33.1122 33.3723 32.5116C33.3723 31.9927 33.2546 31.5651 33.0191 31.2288C32.7837 30.8877 32.5098 30.6258 32.1975 30.4432C31.8852 30.2606 31.4648 30.054 30.9363 29.8234V27.8775C31.1765 27.8871 31.3783 27.9136 31.5417 27.9568C31.7099 28 31.8804 28.0553 32.0534 28.1226C32.1735 28.1706 32.2528 28.1946 32.2912 28.1946C32.3873 28.1946 32.4882 28.1274 32.5939 27.9928C32.7044 27.8583 32.7981 27.7021 32.875 27.5244C32.9519 27.3418 32.9903 27.1929 32.9903 27.0775C32.9903 26.9478 32.9014 26.8181 32.7237 26.6884C32.5507 26.5586 32.3056 26.4481 31.9885 26.3568C31.6762 26.2655 31.3255 26.2127 30.9363 26.1983V25.8019C30.9363 25.6626 30.9075 25.5641 30.8498 25.5064C30.7922 25.4487 30.6937 25.4199 30.5543 25.4199C30.439 25.4199 30.3525 25.4512 30.2949 25.5136C30.2372 25.5713 30.2084 25.6674 30.2084 25.8019V26.2055C29.7423 26.2583 29.3147 26.3857 28.9255 26.5875C28.5412 26.7893 28.2313 27.0775 27.9958 27.4523C27.7652 27.8223 27.6499 28.2763 27.6499 28.8144C27.6499 29.3814 27.7724 29.8426 28.0175 30.1982C28.2673 30.5489 28.558 30.8156 28.8895 30.9982C29.2258 31.1759 29.6655 31.3657 30.2084 31.5675V33.6792C29.9105 33.6792 29.6366 33.6383 29.3868 33.5567C29.1418 33.475 28.8895 33.3693 28.6301 33.2396C28.4475 33.1435 28.3274 33.0954 28.2697 33.0954C28.1832 33.0954 28.0751 33.1627 27.9454 33.2972C27.8157 33.4269 27.7028 33.5831 27.6067 33.7657C27.5154 33.9482 27.4697 34.102 27.4697 34.2269C27.4697 34.3759 27.5778 34.5344 27.794 34.7026C28.0151 34.8707 28.3322 35.0173 28.7454 35.1422C29.1634 35.2623 29.6511 35.332 30.2084 35.3512V35.9134C30.2084 36.0479 30.2396 36.1464 30.3021 36.2088Z" fill="#7C7B91"/>
</svg>
