<svg width="66" height="66" viewBox="0 0 66 66" fill="none" xmlns="http://www.w3.org/2000/svg">
<rect x="2" y="2" width="61.5" height="61.5" rx="30.75" fill="#FEE4E2"/>
<rect x="2" y="2" width="61.5" height="61.5" rx="30.75" stroke="#FEF3F2" stroke-width="4"/>
<path d="M38.3333 23.75V22.5833C38.3333 20.9498 38.3333 20.1331 38.0154 19.5092C37.7358 18.9604 37.2896 18.5142 36.7408 18.2346C36.1169 17.9167 35.3002 17.9167 33.6667 17.9167H31.3333C29.6998 17.9167 28.8831 17.9167 28.2592 18.2346C27.7104 18.5142 27.2642 18.9604 26.9846 19.5092C26.6667 20.1331 26.6667 20.9498 26.6667 22.5833V23.75M29.5833 31.7708V39.0625M35.4167 31.7708V39.0625M19.375 23.75H45.625M42.7083 23.75V40.0833C42.7083 42.5336 42.7083 43.7587 42.2315 44.6945C41.812 45.5178 41.1427 46.187 40.3195 46.6065C39.3837 47.0833 38.1586 47.0833 35.7083 47.0833H29.2917C26.8414 47.0833 25.6163 47.0833 24.6805 46.6065C23.8572 46.187 23.188 45.5178 22.7685 44.6945C22.2917 43.7587 22.2917 42.5336 22.2917 40.0833V23.75" stroke="#FF4B55" stroke-width="2.91667" stroke-linecap="round" stroke-linejoin="round"/>
</svg>
