<svg width="180" height="180" viewBox="0 0 180 180" fill="none" xmlns="http://www.w3.org/2000/svg">
<g id="Email_empty">
<ellipse id="Ellipse 1183" opacity="0.1" cx="90" cy="174.599" rx="90" ry="5.4" fill="#6B7280"/>
<path id="Union" fill-rule="evenodd" clip-rule="evenodd" d="M61.2001 32.3992C61.2001 20.4699 70.8708 10.7992 82.8001 10.7992C94.7295 10.7992 104.4 20.4699 104.4 32.3992C104.4 44.3286 94.7295 53.9992 82.8001 53.9992C70.8708 53.9992 61.2001 44.3286 61.2001 32.3992ZM82.8001 7.19922C68.8825 7.19922 57.6001 18.4816 57.6001 32.3992C57.6001 37.7533 59.2698 42.7174 62.117 46.7992H61.9155C47.0038 46.7992 34.9155 58.8875 34.9155 73.7992V93.5992H27.0001C24.0178 93.5992 21.6001 96.0169 21.6001 98.9992C21.6001 101.982 24.0178 104.399 27.0001 104.399H42.1155H84.6001H85.3155V161.999C85.3155 164.982 87.7332 167.399 90.7155 167.399H97.9155C100.898 167.399 103.316 164.982 103.316 161.999V104.399H142.916C147.886 104.399 151.916 100.37 151.916 95.3992V67.4069C151.916 56.6635 143.694 47.8403 133.2 46.8849V34.1992C133.2 32.211 131.588 30.5992 129.6 30.5992H126C124.012 30.5992 122.4 32.211 122.4 34.1992V46.7992H103.483C106.33 42.7174 108 37.7533 108 32.3992C108 18.4816 96.7177 7.19922 82.8001 7.19922ZM100.436 50.3992C95.8913 54.8531 89.6664 57.5992 82.8001 57.5992C81.766 57.5992 80.7464 57.5369 79.7449 57.4159C83.2244 61.6202 85.3155 67.0155 85.3155 72.8992V100.799H88.9155H99.7155H142.916C145.898 100.799 148.316 98.3816 148.316 95.3992V67.4069C148.316 58.6534 141.703 51.4444 133.2 50.5033V64.7992C133.2 64.9125 133.195 65.025 133.184 65.1363C133.195 65.3228 133.2 65.5105 133.2 65.6992C133.2 71.1668 128.768 75.5992 123.3 75.5992C117.832 75.5992 113.4 71.1668 113.4 65.6992C113.4 60.535 117.354 56.2943 122.4 55.8396V50.3992H100.436ZM88.9155 104.399H99.7155V161.999C99.7155 162.993 98.9096 163.799 97.9155 163.799H90.7155C89.7214 163.799 88.9155 162.993 88.9155 161.999V104.399ZM129.6 34.1992H126V59.6586L124.002 59.4377C123.772 59.4123 123.538 59.3992 123.3 59.3992C119.821 59.3992 117 62.2198 117 65.6992C117 69.1786 119.821 71.9992 123.3 71.9992C126.78 71.9992 129.6 69.1786 129.6 65.6992C129.6 65.5379 129.594 65.3782 129.582 65.2206L129.567 65.01L129.6 64.8015L129.6 64.7992V34.1992ZM142.2 112.741C142.2 110.122 144.323 107.999 146.942 107.999H156.698C159.317 107.999 161.44 110.122 161.44 112.741C161.44 115.361 159.317 117.484 156.698 117.484H146.942C144.323 117.484 142.2 115.361 142.2 112.741ZM146.942 111.599C146.312 111.599 145.8 112.111 145.8 112.741C145.8 113.372 146.312 113.884 146.942 113.884H156.698C157.329 113.884 157.84 113.372 157.84 112.741C157.84 112.111 157.329 111.599 156.698 111.599H146.942ZM78.3001 20.6992C78.3001 18.2139 80.3148 16.1992 82.8001 16.1992C85.2854 16.1992 87.3001 18.2139 87.3001 20.6992V31.4992C87.3001 33.9845 85.2854 35.9992 82.8001 35.9992C80.3148 35.9992 78.3001 33.9845 78.3001 31.4992V20.6992ZM82.8001 19.7992C82.303 19.7992 81.9001 20.2022 81.9001 20.6992V31.4992C81.9001 31.9963 82.303 32.3992 82.8001 32.3992C83.2972 32.3992 83.7001 31.9963 83.7001 31.4992V20.6992C83.7001 20.2022 83.2972 19.7992 82.8001 19.7992ZM82.8001 48.5992C80.3148 48.5992 78.3001 46.5845 78.3001 44.0992C78.3001 41.6139 80.3148 39.5992 82.8001 39.5992C85.2854 39.5992 87.3001 41.6139 87.3001 44.0992C87.3001 46.5845 85.2854 48.5992 82.8001 48.5992ZM81.9001 44.0992C81.9001 44.5963 82.303 44.9992 82.8001 44.9992C83.2972 44.9992 83.7001 44.5963 83.7001 44.0992C83.7001 43.6022 83.2972 43.1992 82.8001 43.1992C82.303 43.1992 81.9001 43.6022 81.9001 44.0992Z" fill="#6B7280"/>
</g>
</svg>
