<svg width="15" height="15" viewBox="0 0 15 15" fill="none" xmlns="http://www.w3.org/2000/svg">
<g filter="url(#filter0_i_1192_2463)">
<path d="M2.08228 9.78906C2.08228 6.81203 4.49587 4.39844 7.4729 4.39844H7.73681C10.7134 4.39844 13.1274 6.81203 13.1274 9.78906V9.92313C13.1274 11.0171 12.6928 12.0664 11.9192 12.8399C11.1457 13.6135 10.0965 14.0481 9.00243 14.0481H6.20728C5.11326 14.0481 4.06405 13.6135 3.29046 12.8399C2.51687 12.0664 2.08228 11.0171 2.08228 9.92313V9.78906Z" fill="url(#paint0_radial_1192_2463)"/>
<path d="M2.08228 9.78906C2.08228 6.81203 4.49587 4.39844 7.4729 4.39844H7.73681C10.7134 4.39844 13.1274 6.81203 13.1274 9.78906V9.92313C13.1274 11.0171 12.6928 12.0664 11.9192 12.8399C11.1457 13.6135 10.0965 14.0481 9.00243 14.0481H6.20728C5.11326 14.0481 4.06405 13.6135 3.29046 12.8399C2.51687 12.0664 2.08228 11.0171 2.08228 9.92313V9.78906Z" fill="url(#paint1_radial_1192_2463)"/>
</g>
<path d="M2.08228 9.78906C2.08228 6.81203 4.49587 4.39844 7.4729 4.39844H7.73681C10.7134 4.39844 13.1274 6.81203 13.1274 9.78906V9.92313C13.1274 11.0171 12.6928 12.0664 11.9192 12.8399C11.1457 13.6135 10.0965 14.0481 9.00243 14.0481H6.20728C5.11326 14.0481 4.06405 13.6135 3.29046 12.8399C2.51687 12.0664 2.08228 11.0171 2.08228 9.92313V9.78906Z" fill="url(#paint2_radial_1192_2463)"/>
<path d="M2.08228 9.78906C2.08228 6.81203 4.49587 4.39844 7.4729 4.39844H7.73681C10.7134 4.39844 13.1274 6.81203 13.1274 9.78906V9.92313C13.1274 11.0171 12.6928 12.0664 11.9192 12.8399C11.1457 13.6135 10.0965 14.0481 9.00243 14.0481H6.20728C5.11326 14.0481 4.06405 13.6135 3.29046 12.8399C2.51687 12.0664 2.08228 11.0171 2.08228 9.92313V9.78906Z" fill="url(#paint3_radial_1192_2463)"/>
<g filter="url(#filter1_ii_1192_2463)">
<path d="M5.70051 2.20438C5.92083 2.57984 6.24192 3.06172 6.65442 3.45688H8.5552C8.9677 3.06172 9.28833 2.58031 9.50911 2.20438C9.53552 2.15828 9.55221 2.10726 9.55815 2.05447C9.56409 2.00168 9.55916 1.94823 9.54366 1.89742C9.52816 1.84661 9.50241 1.79951 9.46801 1.75902C9.43361 1.71854 9.39128 1.68553 9.34364 1.66203C9.19364 1.58516 9.01739 1.62172 8.87161 1.70656C8.54255 1.89828 8.3527 1.67234 8.06255 1.22844C7.91676 1.00531 7.69411 0.993594 7.60458 0.992188C7.51551 0.993594 7.29286 1.00531 7.14708 1.22844C6.85645 1.67234 6.66708 1.89828 6.33801 1.70656C6.19223 1.62172 6.01598 1.58516 5.86551 1.66203C5.81791 1.68557 5.77563 1.71861 5.74128 1.75912C5.70693 1.79962 5.68123 1.84672 5.66577 1.89753C5.65031 1.94834 5.64542 2.00178 5.6514 2.05455C5.65737 2.10732 5.67409 2.15831 5.70051 2.20438Z" fill="url(#paint4_linear_1192_2463)"/>
</g>
<g filter="url(#filter2_i_1192_2463)">
<path d="M8.44516 3.45312H6.74266C6.47057 3.45312 6.25 3.67369 6.25 3.94578V3.94906C6.25 4.22115 6.47057 4.44172 6.74266 4.44172H8.44516C8.71724 4.44172 8.93781 4.22115 8.93781 3.94906V3.94578C8.93781 3.67369 8.71724 3.45312 8.44516 3.45312Z" fill="url(#paint5_linear_1192_2463)"/>
<path d="M8.44516 3.45312H6.74266C6.47057 3.45312 6.25 3.67369 6.25 3.94578V3.94906C6.25 4.22115 6.47057 4.44172 6.74266 4.44172H8.44516C8.71724 4.44172 8.93781 4.22115 8.93781 3.94906V3.94578C8.93781 3.67369 8.71724 3.45312 8.44516 3.45312Z" fill="url(#paint6_radial_1192_2463)"/>
</g>
<path d="M8.44516 3.45312H6.74266C6.47057 3.45312 6.25 3.67369 6.25 3.94578V3.94906C6.25 4.22115 6.47057 4.44172 6.74266 4.44172H8.44516C8.71724 4.44172 8.93781 4.22115 8.93781 3.94906V3.94578C8.93781 3.67369 8.71724 3.45312 8.44516 3.45312Z" fill="url(#paint7_radial_1192_2463)"/>
<g clip-path="url(#clip0_1192_2463)">
<path d="M9.11996 9.47303C8.91022 9.28796 8.64357 9.18972 8.36996 9.19671H6.61121C6.53102 9.19884 6.45125 9.18392 6.37667 9.15284C6.30209 9.12175 6.23423 9.07515 6.17716 9.01581C6.12009 8.95648 6.07498 8.88563 6.04454 8.80751C6.01409 8.72939 5.99893 8.64561 5.99996 8.56118C5.99801 8.52832 5.99801 8.49536 5.99996 8.4625C6.02361 8.31163 6.09876 8.17504 6.21131 8.07838C6.32386 7.98171 6.46606 7.93161 6.61121 7.9375H8.34371C8.48504 7.93737 8.62181 7.99008 8.72964 8.08624C8.83747 8.18239 8.90935 8.31574 8.93246 8.4625H9.49496C9.47142 8.15813 9.33992 7.87424 9.12661 7.66726C8.91331 7.46028 8.63382 7.34538 8.34371 7.34539H7.75121V6.4375H7.28246V7.34539H6.61121C6.32111 7.34538 6.04162 7.46028 5.82831 7.66726C5.61501 7.87424 5.48351 8.15813 5.45996 8.4625C5.45801 8.49536 5.45801 8.52832 5.45996 8.56118C5.45996 8.72033 5.48974 8.87791 5.5476 9.02494C5.60545 9.17196 5.69025 9.30556 5.79716 9.41809C6.01306 9.64535 6.30588 9.77303 6.61121 9.77303H8.38871C8.46827 9.77092 8.54742 9.7856 8.6215 9.81619C8.69558 9.84679 8.76309 9.89269 8.82006 9.95118C8.87702 10.0097 8.92229 10.0796 8.95318 10.1568C8.98408 10.234 8.99999 10.3169 8.99996 10.4007C9.00358 10.4453 9.00358 10.4902 8.99996 10.5349C8.97019 10.6738 8.89644 10.7979 8.79081 10.8868C8.68519 10.9758 8.55398 11.0243 8.41871 11.0243H6.65621C6.52095 11.0243 6.38974 10.9758 6.28411 10.8868C6.17849 10.7979 6.10474 10.6738 6.07496 10.5349H5.50871C5.54094 10.8315 5.6757 11.1052 5.88732 11.3039C6.09894 11.5027 6.37262 11.6125 6.65621 11.6125H7.28246V12.5086H7.75121V11.6125H8.38871C8.67231 11.6125 8.94599 11.5027 9.15761 11.3039C9.36922 11.1052 9.50399 10.8315 9.53621 10.5349V10.4007C9.53576 10.2234 9.49823 10.0483 9.4263 9.88801C9.35436 9.72769 9.24977 9.58601 9.11996 9.47303Z" fill="#218637"/>
</g>
<defs>
<filter id="filter0_i_1192_2463" x="2.08228" y="3.64844" width="11.5452" height="10.3984" filterUnits="userSpaceOnUse" color-interpolation-filters="sRGB">
<feFlood flood-opacity="0" result="BackgroundImageFix"/>
<feBlend mode="normal" in="SourceGraphic" in2="BackgroundImageFix" result="shape"/>
<feColorMatrix in="SourceAlpha" type="matrix" values="0 0 0 0 0 0 0 0 0 0 0 0 0 0 0 0 0 0 127 0" result="hardAlpha"/>
<feOffset dx="0.5" dy="-0.75"/>
<feGaussianBlur stdDeviation="0.875"/>
<feComposite in2="hardAlpha" operator="arithmetic" k2="-1" k3="1"/>
<feColorMatrix type="matrix" values="0 0 0 0 0.713726 0 0 0 0 0.321569 0 0 0 0 0.211765 0 0 0 1 0"/>
<feBlend mode="normal" in2="shape" result="effect1_innerShadow_1192_2463"/>
</filter>
<filter id="filter1_ii_1192_2463" x="5.54893" y="0.867188" width="4.06162" height="2.68594" filterUnits="userSpaceOnUse" color-interpolation-filters="sRGB">
<feFlood flood-opacity="0" result="BackgroundImageFix"/>
<feBlend mode="normal" in="SourceGraphic" in2="BackgroundImageFix" result="shape"/>
<feColorMatrix in="SourceAlpha" type="matrix" values="0 0 0 0 0 0 0 0 0 0 0 0 0 0 0 0 0 0 127 0" result="hardAlpha"/>
<feOffset dx="-0.1" dy="0.1"/>
<feGaussianBlur stdDeviation="0.075"/>
<feComposite in2="hardAlpha" operator="arithmetic" k2="-1" k3="1"/>
<feColorMatrix type="matrix" values="0 0 0 0 1 0 0 0 0 0.92549 0 0 0 0 0.403922 0 0 0 1 0"/>
<feBlend mode="normal" in2="shape" result="effect1_innerShadow_1192_2463"/>
<feColorMatrix in="SourceAlpha" type="matrix" values="0 0 0 0 0 0 0 0 0 0 0 0 0 0 0 0 0 0 127 0" result="hardAlpha"/>
<feOffset dx="0.05" dy="-0.125"/>
<feGaussianBlur stdDeviation="0.125"/>
<feComposite in2="hardAlpha" operator="arithmetic" k2="-1" k3="1"/>
<feColorMatrix type="matrix" values="0 0 0 0 0.788235 0 0 0 0 0.364706 0 0 0 0 0.12549 0 0 0 1 0"/>
<feBlend mode="normal" in2="effect1_innerShadow_1192_2463" result="effect2_innerShadow_1192_2463"/>
</filter>
<filter id="filter2_i_1192_2463" x="6.25" y="3.15312" width="2.68774" height="1.29219" filterUnits="userSpaceOnUse" color-interpolation-filters="sRGB">
<feFlood flood-opacity="0" result="BackgroundImageFix"/>
<feBlend mode="normal" in="SourceGraphic" in2="BackgroundImageFix" result="shape"/>
<feColorMatrix in="SourceAlpha" type="matrix" values="0 0 0 0 0 0 0 0 0 0 0 0 0 0 0 0 0 0 127 0" result="hardAlpha"/>
<feOffset dy="-0.3"/>
<feGaussianBlur stdDeviation="0.25"/>
<feComposite in2="hardAlpha" operator="arithmetic" k2="-1" k3="1"/>
<feColorMatrix type="matrix" values="0 0 0 0 0.388235 0 0 0 0 0.223529 0 0 0 0 0.109804 0 0 0 1 0"/>
<feBlend mode="normal" in2="shape" result="effect1_innerShadow_1192_2463"/>
</filter>
<radialGradient id="paint0_radial_1192_2463" cx="0" cy="0" r="1" gradientUnits="userSpaceOnUse" gradientTransform="translate(9.11311 5.30321) rotate(100.07) scale(8.62903 9.03792)">
<stop stop-color="#F6C93B"/>
<stop offset="1" stop-color="#E88340"/>
</radialGradient>
<radialGradient id="paint1_radial_1192_2463" cx="0" cy="0" r="1" gradientUnits="userSpaceOnUse" gradientTransform="translate(11.2817 6.65025) rotate(133.199) scale(3.29548 5.52122)">
<stop stop-color="#FFE065"/>
<stop offset="1" stop-color="#FFE065" stop-opacity="0"/>
</radialGradient>
<radialGradient id="paint2_radial_1192_2463" cx="0" cy="0" r="1" gradientUnits="userSpaceOnUse" gradientTransform="translate(2.84399 6.65078) rotate(31.6513) scale(2.51237 6.22654)">
<stop offset="0.187" stop-color="#FFA45D"/>
<stop offset="1" stop-color="#FFA45D" stop-opacity="0"/>
</radialGradient>
<radialGradient id="paint3_radial_1192_2463" cx="0" cy="0" r="1" gradientUnits="userSpaceOnUse" gradientTransform="translate(7.60462 11.8361) rotate(-90) scale(7.64648 11.5206)">
<stop offset="0.928" stop-color="#F3BD46" stop-opacity="0"/>
<stop offset="0.98" stop-color="#917011"/>
</radialGradient>
<linearGradient id="paint4_linear_1192_2463" x1="8.19239" y1="1.8275" x2="7.60458" y2="3.45688" gradientUnits="userSpaceOnUse">
<stop stop-color="#F3C048"/>
<stop offset="1" stop-color="#E67A41"/>
</linearGradient>
<linearGradient id="paint5_linear_1192_2463" x1="6.62359" y1="3.94766" x2="8.93781" y2="3.94766" gradientUnits="userSpaceOnUse">
<stop stop-color="#834B41"/>
<stop offset="1" stop-color="#735854"/>
</linearGradient>
<radialGradient id="paint6_radial_1192_2463" cx="0" cy="0" r="1" gradientUnits="userSpaceOnUse" gradientTransform="translate(8.46906 3.79391) rotate(180) scale(0.875245 0.65918)">
<stop stop-color="#7D5A54"/>
<stop offset="1" stop-color="#7D5A54" stop-opacity="0"/>
</radialGradient>
<radialGradient id="paint7_radial_1192_2463" cx="0" cy="0" r="1" gradientUnits="userSpaceOnUse" gradientTransform="translate(8.58625 3.94766) rotate(180) scale(2.59277 2.07705)">
<stop offset="0.695" stop-color="#B3624D" stop-opacity="0"/>
<stop offset="0.96" stop-color="#B3624D"/>
</radialGradient>
<clipPath id="clip0_1192_2463">
<rect width="6" height="6.31579" fill="white" transform="translate(4.5 6.3125)"/>
</clipPath>
</defs>
</svg>
