<svg width="10" height="10" viewBox="0 0 10 10" fill="none" xmlns="http://www.w3.org/2000/svg">
<path d="M1.66634 1.66406C1.44533 1.66406 1.23337 1.75186 1.07709 1.90814C0.920805 2.06442 0.833008 2.27638 0.833008 2.4974V4.16406C1.05402 4.16406 1.26598 4.25186 1.42226 4.40814C1.57854 4.56442 1.66634 4.77638 1.66634 4.9974C1.66634 5.21841 1.57854 5.43037 1.42226 5.58665C1.26598 5.74293 1.05402 5.83073 0.833008 5.83073V7.4974C0.833008 7.71841 0.920805 7.93037 1.07709 8.08665C1.23337 8.24293 1.44533 8.33073 1.66634 8.33073H8.33301C8.55402 8.33073 8.76598 8.24293 8.92226 8.08665C9.07854 7.93037 9.16634 7.71841 9.16634 7.4974V5.83073C8.94533 5.83073 8.73337 5.74293 8.57709 5.58665C8.4208 5.43037 8.33301 5.21841 8.33301 4.9974C8.33301 4.77638 8.4208 4.56442 8.57709 4.40814C8.73337 4.25186 8.94533 4.16406 9.16634 4.16406V2.4974C9.16634 2.27638 9.07854 2.06442 8.92226 1.90814C8.76598 1.75186 8.55402 1.66406 8.33301 1.66406H1.66634ZM6.45801 2.91406L7.08301 3.53906L3.54134 7.08073L2.91634 6.45573L6.45801 2.91406ZM3.67051 2.93073C4.07884 2.93073 4.40801 3.2599 4.40801 3.66823C4.40801 3.86383 4.33031 4.05141 4.192 4.18972C4.05369 4.32803 3.86611 4.40573 3.67051 4.40573C3.26217 4.40573 2.93301 4.07656 2.93301 3.66823C2.93301 3.47263 3.01071 3.28505 3.14902 3.14674C3.28732 3.00843 3.47491 2.93073 3.67051 2.93073ZM6.32884 5.58906C6.73717 5.58906 7.06634 5.91823 7.06634 6.32656C7.06634 6.52216 6.98864 6.70975 6.85033 6.84805C6.71202 6.98636 6.52444 7.06406 6.32884 7.06406C5.92051 7.06406 5.59134 6.7349 5.59134 6.32656C5.59134 6.13097 5.66904 5.94338 5.80735 5.80507C5.94566 5.66676 6.13324 5.58906 6.32884 5.58906Z" fill="#C6D1DC"/>
</svg>
