<svg width="181" height="180" viewBox="0 0 181 180" fill="none" xmlns="http://www.w3.org/2000/svg">
<ellipse opacity="0.1" cx="90.5" cy="174.598" rx="90" ry="5.4" fill="#B0B0BD"/>
<path fill-rule="evenodd" clip-rule="evenodd" d="M138.08 27.2989C138.08 24.6798 135.957 22.5566 133.338 22.5566C130.719 22.5566 128.596 24.6798 128.596 27.2989V37.0545C128.596 39.6736 130.719 41.7968 133.338 41.7968C135.957 41.7968 138.08 39.6736 138.08 37.0545V27.2989ZM133.338 26.1566C133.969 26.1566 134.48 26.668 134.48 27.2989V37.0545C134.48 37.6854 133.969 38.1968 133.338 38.1968C132.707 38.1968 132.196 37.6854 132.196 37.0545V27.2989C132.196 26.668 132.707 26.1566 133.338 26.1566ZM18.5 61.1985C18.5 52.2515 25.753 44.9986 34.7 44.9986H117.5C126.447 44.9986 133.7 52.2515 133.7 61.1985V75.5985H148.1C155.059 75.5985 160.7 81.2397 160.7 88.1984V132.838C160.7 139.797 155.059 145.438 148.1 145.438H143.409V151.96C143.409 156.671 137.797 159.123 134.34 155.922L123.016 145.438H74.3C67.3412 145.438 61.7 139.797 61.7 132.838V127.15L47.812 140.112C44.3602 143.333 38.7275 140.886 38.7275 136.164V126.718H34.7C25.753 126.718 18.5 119.465 18.5 110.518V61.1985ZM133.7 110.518V79.1985H148.1C153.071 79.1985 157.1 83.2279 157.1 88.1984V132.838C157.1 137.809 153.071 141.838 148.1 141.838H141.609C140.615 141.838 139.809 142.644 139.809 143.638V151.96C139.809 153.53 137.938 154.347 136.786 153.28L124.944 142.317C124.611 142.009 124.175 141.838 123.721 141.838H74.3C69.3294 141.838 65.3 137.809 65.3 132.838V126.718H117.5C126.447 126.718 133.7 119.465 133.7 110.518ZM117.5 123.118L65.3 123.118H61.7L61.4525 123.118C60.9966 123.118 60.5576 123.291 60.2243 123.602L45.3557 137.48C44.2051 138.554 42.3275 137.738 42.3275 136.164V124.918C42.3275 123.924 41.5216 123.118 40.5275 123.118H34.7C27.7412 123.118 22.1 117.477 22.1 110.518V61.1985C22.1 54.2397 27.7412 48.5986 34.7 48.5986H117.5C124.459 48.5986 130.1 54.2397 130.1 61.1985V110.518C130.1 117.477 124.459 123.118 117.5 123.118ZM49.595 94.2281C54.2176 94.2281 57.965 90.4807 57.965 85.8581C57.965 81.2355 54.2176 77.4881 49.595 77.4881C44.9724 77.4881 41.225 81.2355 41.225 85.8581C41.225 90.4807 44.9724 94.2281 49.595 94.2281ZM84.4693 85.8581C84.4693 90.4807 80.7219 94.2281 76.0993 94.2281C71.4767 94.2281 67.7293 90.4807 67.7293 85.8581C67.7293 81.2355 71.4767 77.4881 76.0993 77.4881C80.7219 77.4881 84.4693 81.2355 84.4693 85.8581ZM102.605 94.2281C107.228 94.2281 110.975 90.4807 110.975 85.8581C110.975 81.2355 107.228 77.4881 102.605 77.4881C97.9827 77.4881 94.2354 81.2355 94.2354 85.8581C94.2354 90.4807 97.9827 94.2281 102.605 94.2281ZM137.919 47.4317C137.919 50.0508 140.042 52.1739 142.661 52.1739H152.417C155.036 52.1739 157.159 50.0508 157.159 47.4317C157.159 44.8126 155.036 42.6894 152.417 42.6894H142.661C140.042 42.6894 137.919 44.8126 137.919 47.4317ZM142.661 48.5739C142.03 48.5739 141.519 48.0625 141.519 47.4317C141.519 46.8008 142.03 46.2894 142.661 46.2894H152.417C153.048 46.2894 153.559 46.8008 153.559 47.4317C153.559 48.0625 153.048 48.5739 152.417 48.5739H142.661Z" fill="#B0B0BD"/>
</svg>
