<svg width="10" height="8" viewBox="0 0 10 8" fill="none" xmlns="http://www.w3.org/2000/svg">
<path d="M1.66683 0.664062C1.44582 0.664063 1.23385 0.75186 1.07757 0.90814C0.921293 1.06442 0.833496 1.27638 0.833496 1.4974V3.16406C1.05451 3.16406 1.26647 3.25186 1.42275 3.40814C1.57903 3.56442 1.66683 3.77638 1.66683 3.9974C1.66683 4.21841 1.57903 4.43037 1.42275 4.58665C1.26647 4.74293 1.05451 4.83073 0.833496 4.83073V6.4974C0.833496 6.71841 0.921293 6.93037 1.07757 7.08665C1.23385 7.24293 1.44582 7.33073 1.66683 7.33073H8.3335C8.55451 7.33073 8.76647 7.24293 8.92275 7.08665C9.07903 6.93037 9.16683 6.71841 9.16683 6.4974V4.83073C8.94582 4.83073 8.73385 4.74293 8.57757 4.58665C8.42129 4.43037 8.3335 4.21841 8.3335 3.9974C8.3335 3.77638 8.42129 3.56442 8.57757 3.40814C8.73385 3.25186 8.94582 3.16406 9.16683 3.16406V1.4974C9.16683 1.27638 9.07903 1.06442 8.92275 0.90814C8.76647 0.75186 8.55451 0.664063 8.3335 0.664062H1.66683ZM6.4585 1.91406L7.0835 2.53906L3.54183 6.08073L2.91683 5.45573L6.4585 1.91406ZM3.671 1.93073C4.07933 1.93073 4.4085 2.2599 4.4085 2.66823C4.4085 2.86383 4.3308 3.05141 4.19249 3.18972C4.05418 3.32803 3.86659 3.40573 3.671 3.40573C3.26266 3.40573 2.9335 3.07656 2.9335 2.66823C2.9335 2.47263 3.0112 2.28505 3.1495 2.14674C3.28781 2.00843 3.4754 1.93073 3.671 1.93073ZM6.32933 4.58906C6.73766 4.58906 7.06683 4.91823 7.06683 5.32656C7.06683 5.52216 6.98913 5.70975 6.85082 5.84805C6.71251 5.98636 6.52493 6.06406 6.32933 6.06406C5.921 6.06406 5.59183 5.7349 5.59183 5.32656C5.59183 5.13097 5.66953 4.94338 5.80784 4.80507C5.94615 4.66676 6.13373 4.58906 6.32933 4.58906Z" fill="#CC8B8B"/>
</svg>
