<svg width="65" height="65" viewBox="0 0 65 65" fill="none" xmlns="http://www.w3.org/2000/svg">
<rect x="2" y="2" width="61" height="61" rx="30.5" fill="#FEF0C7"/>
<rect x="2" y="2" width="61" height="61" rx="30.5" stroke="#FFFAEB" stroke-width="4"/>
<path d="M32.3167 39.0583C30.5468 39.0583 29.0792 37.5907 29.0792 35.8208V14.2375C29.0792 12.4677 30.5468 11 32.3167 11C34.0865 11 35.5542 12.4677 35.5542 14.2375V35.8208C35.5542 37.5907 34.0865 39.0583 32.3167 39.0583Z" fill="#DC6803"/>
<path d="M32.3167 53.2701C31.7555 53.2701 31.1943 53.1406 30.6763 52.9248C30.1583 52.7089 29.6835 52.4067 29.2518 52.0182C28.8633 51.5866 28.5612 51.1549 28.3453 50.5937C28.1295 50.0757 28 49.5146 28 48.9534C28 48.3923 28.1295 47.8311 28.3453 47.3131C28.5612 46.7951 28.8633 46.3203 29.2518 45.8886C29.6835 45.5001 30.1583 45.1979 30.6763 44.9821C31.7123 44.5504 32.921 44.5504 33.957 44.9821C34.475 45.1979 34.9498 45.5001 35.3815 45.8886C35.77 46.3203 36.0722 46.7951 36.288 47.3131C36.5038 47.8311 36.6333 48.3923 36.6333 48.9534C36.6333 49.5146 36.5038 50.0757 36.288 50.5937C36.0722 51.1549 35.77 51.5866 35.3815 52.0182C34.9498 52.4067 34.475 52.7089 33.957 52.9248C33.439 53.1406 32.8778 53.2701 32.3167 53.2701Z" fill="#DC6803"/>
</svg>
