<svg width="786" height="454" viewBox="0 0 786 454" fill="none" xmlns="http://www.w3.org/2000/svg">
<g filter="url(#filter0_d_3075_823)">
<path d="M730.5 17.5H55.5C41.1406 17.5 29.5 29.1406 29.5 43.5V386.5C29.5 400.859 41.1406 412.5 55.5 412.5H730.5C744.859 412.5 756.5 400.859 756.5 386.5V43.5C756.5 29.1406 744.859 17.5 730.5 17.5Z" fill="#24C12B" fill-opacity="0.49"/>
</g>
<path d="M399.5 285.5C438.16 285.5 469.5 254.16 469.5 215.5C469.5 176.84 438.16 145.5 399.5 145.5C360.84 145.5 329.5 176.84 329.5 215.5C329.5 254.16 360.84 285.5 399.5 285.5Z" fill="white"/>
<path d="M399.5 258.5C423.248 258.5 442.5 239.248 442.5 215.5C442.5 191.752 423.248 172.5 399.5 172.5C375.752 172.5 356.5 191.752 356.5 215.5C356.5 239.248 375.752 258.5 399.5 258.5Z" fill="#24C12B"/>
<path d="M413.189 211.174C413.947 211.614 414.576 212.244 415.014 213.004C415.451 213.763 415.682 214.624 415.682 215.5C415.682 216.376 415.451 217.237 415.014 217.997C414.576 218.756 413.947 219.387 413.189 219.826L397.644 228.835C396.884 229.276 396.021 229.508 395.143 229.509C394.264 229.51 393.401 229.28 392.64 228.841C391.879 228.403 391.247 227.771 390.808 227.011C390.368 226.25 390.137 225.387 390.137 224.509V206.492C390.137 205.614 390.368 204.751 390.808 203.99C391.247 203.23 391.879 202.599 392.64 202.16C393.401 201.721 394.264 201.491 395.143 201.492C396.021 201.493 396.884 201.726 397.644 202.166L413.189 211.174Z" fill="white"/>
<defs>
<filter id="filter0_d_3075_823" x="0.5" y="0.5" width="785" height="453" filterUnits="userSpaceOnUse" color-interpolation-filters="sRGB">
<feFlood flood-opacity="0" result="BackgroundImageFix"/>
<feColorMatrix in="SourceAlpha" type="matrix" values="0 0 0 0 0 0 0 0 0 0 0 0 0 0 0 0 0 0 127 0" result="hardAlpha"/>
<feOffset dy="12"/>
<feGaussianBlur stdDeviation="14.5"/>
<feColorMatrix type="matrix" values="0 0 0 0 0 0 0 0 0 0 0 0 0 0 0 0 0 0 0.039 0"/>
<feBlend mode="normal" in2="BackgroundImageFix" result="effect1_dropShadow_3075_823"/>
<feBlend mode="normal" in="SourceGraphic" in2="effect1_dropShadow_3075_823" result="shape"/>
</filter>
</defs>
</svg>
