<svg width="9" height="7" viewBox="0 0 9 7" fill="none" xmlns="http://www.w3.org/2000/svg">
<path d="M0.9 0C0.661305 0 0.432387 0.0921872 0.263604 0.256282C0.0948211 0.420376 0 0.642936 0 0.875V2.625C0.238695 2.625 0.467613 2.71719 0.636396 2.88128C0.805179 3.04538 0.9 3.26794 0.9 3.5C0.9 3.73206 0.805179 3.95462 0.636396 4.11872C0.467613 4.28281 0.238695 4.375 0 4.375V6.125C0 6.35706 0.0948211 6.57962 0.263604 6.74372C0.432387 6.90781 0.661305 7 0.9 7H8.1C8.33869 7 8.56761 6.90781 8.7364 6.74372C8.90518 6.57962 9 6.35706 9 6.125V4.375C8.7613 4.375 8.53239 4.28281 8.3636 4.11872C8.19482 3.95462 8.1 3.73206 8.1 3.5C8.1 3.26794 8.19482 3.04538 8.3636 2.88128C8.53239 2.71719 8.7613 2.625 9 2.625V0.875C9 0.642936 8.90518 0.420376 8.7364 0.256282C8.56761 0.0921872 8.33869 0 8.1 0H0.9ZM6.075 1.3125L6.75 1.96875L2.925 5.6875L2.25 5.03125L6.075 1.3125ZM3.0645 1.33C3.5055 1.33 3.861 1.67563 3.861 2.10438C3.861 2.30975 3.77708 2.50672 3.62771 2.65194C3.47834 2.79716 3.27575 2.87875 3.0645 2.87875C2.6235 2.87875 2.268 2.53313 2.268 2.10438C2.268 1.899 2.35192 1.70203 2.50129 1.55681C2.65066 1.41159 2.85326 1.33 3.0645 1.33ZM5.9355 4.12125C6.3765 4.12125 6.732 4.46687 6.732 4.89562C6.732 5.101 6.64808 5.29797 6.49871 5.44319C6.34934 5.58841 6.14674 5.67 5.9355 5.67C5.4945 5.67 5.139 5.32437 5.139 4.89562C5.139 4.69025 5.22292 4.49328 5.37229 4.34806C5.52166 4.20284 5.72425 4.12125 5.9355 4.12125Z" fill="#FF685D" fill-opacity="0.81"/>
</svg>
