<svg width="9" height="9" viewBox="0 0 9 9" fill="none" xmlns="http://www.w3.org/2000/svg">
<g clip-path="url(#clip0_2466_1278)">
<path d="M5.47475 7.96513C6.85015 7.96513 7.96513 6.85015 7.96513 5.47475C7.96513 4.09935 6.85015 2.98438 5.47475 2.98438C4.09935 2.98438 2.98438 4.09935 2.98438 5.47475C2.98438 6.85015 4.09935 7.96513 5.47475 7.96513Z" stroke="#24C12B" stroke-width="0.5" stroke-linecap="round" stroke-linejoin="round"/>
<path d="M4.70781 6.43182C4.7816 6.5249 4.87664 6.59892 4.98496 6.64766C5.09328 6.6964 5.21171 6.71845 5.33031 6.71194H5.704C5.86912 6.71194 6.02748 6.64635 6.14424 6.52959C6.261 6.41283 6.32659 6.25447 6.32659 6.08935C6.32659 5.92423 6.261 5.76587 6.14424 5.64911C6.02748 5.53235 5.86912 5.46676 5.704 5.46676H5.29919C5.13407 5.46676 4.97571 5.40116 4.85895 5.2844C4.74219 5.16764 4.67659 5.00929 4.67659 4.84416C4.67659 4.67904 4.74219 4.52068 4.85895 4.40392C4.97571 4.28716 5.13407 4.22157 5.29919 4.22157H5.67287C5.79222 4.20812 5.91299 4.22703 6.02252 4.27632C6.13204 4.3256 6.22629 4.40345 6.29538 4.50169M5.48594 3.8792V6.99207M3.09156 4.63144C3.00757 4.55271 2.9407 4.45753 2.89512 4.35181C2.84953 4.2461 2.82622 4.13213 2.82662 4.01701V3.20757C2.82618 3.09707 2.84762 2.98757 2.8897 2.8854C2.93179 2.78323 2.99369 2.6904 3.07184 2.61227C3.14998 2.53415 3.24282 2.47226 3.345 2.4302C3.44719 2.38814 3.55669 2.36672 3.66719 2.3672C3.79206 2.36945 3.91501 2.39839 4.02778 2.45207C4.14054 2.50575 4.24052 2.58294 4.321 2.67845M2.45312 3.26982H3.51156M2.45312 3.89232H3.51156" stroke="#24C12B" stroke-width="0.5" stroke-linecap="round" stroke-linejoin="round"/>
<path d="M3.00371 5.95755C2.5653 5.86434 2.16018 5.65454 1.83106 5.35028C1.50195 5.04602 1.26105 4.65858 1.13377 4.22882C1.00649 3.79907 0.997556 3.34293 1.1079 2.90852C1.21824 2.47411 1.44378 2.07753 1.76072 1.76061C2.07766 1.44369 2.47425 1.21818 2.90867 1.10786C3.34309 0.997545 3.79923 1.00651 4.22898 1.13382C4.65872 1.26112 5.04615 1.50205 5.35039 1.83118C5.65462 2.16031 5.8644 2.56545 5.95758 3.00386" stroke="#24C12B" stroke-width="0.5" stroke-linecap="round" stroke-linejoin="round"/>
</g>
<defs>
<clipPath id="clip0_2466_1278">
<rect width="9" height="9" fill="white"/>
</clipPath>
</defs>
</svg>
