<svg width="9" height="9" viewBox="0 0 9 9" fill="none" xmlns="http://www.w3.org/2000/svg">
<path d="M8.76324 1.45777L4.60943 0.0184678C4.53837 -0.00615592 4.46155 -0.00615592 4.39049 0.0184678L0.236681 1.45777C0.167756 1.48166 0.107807 1.52748 0.0653288 1.58875C0.0228501 1.65002 -5.38363e-06 1.72363 9.51205e-10 1.79916V5.39742C9.51205e-10 5.49285 0.0364694 5.58438 0.101385 5.65186C0.166301 5.71934 0.254346 5.75725 0.346151 5.75725C0.437956 5.75725 0.526001 5.71934 0.590916 5.65186C0.655832 5.58438 0.692302 5.49285 0.692302 5.39742V2.29842L2.1457 2.80173C1.75955 3.45022 1.63676 4.23151 1.80428 4.97404C1.97181 5.71657 2.41596 6.35965 3.0392 6.76206C2.26037 7.07961 1.5871 7.65399 1.0947 8.43931C1.06909 8.47887 1.05131 8.52333 1.04237 8.57011C1.03344 8.61688 1.03354 8.66503 1.04267 8.71176C1.05179 8.7585 1.06977 8.80288 1.09554 8.84233C1.12131 8.88178 1.15437 8.91551 1.19279 8.94156C1.23122 8.96761 1.27424 8.98546 1.31936 8.99408C1.36448 9.00269 1.41079 9.0019 1.45561 8.99175C1.50044 8.98159 1.54287 8.96227 1.58045 8.93492C1.61802 8.90757 1.65 8.87273 1.6745 8.83242C2.32657 7.79252 3.35637 7.19656 4.49996 7.19656C5.64356 7.19656 6.67336 7.79252 7.32542 8.83242C7.37619 8.91086 7.45461 8.96537 7.54374 8.98418C7.63287 9.00299 7.72554 8.98458 7.80172 8.93293C7.87789 8.88129 7.93146 8.80055 7.95082 8.70818C7.97019 8.61581 7.95381 8.51922 7.90522 8.43931C7.41282 7.65399 6.73696 7.07961 5.96072 6.76206C6.58337 6.35967 7.0271 5.71701 7.19459 4.97502C7.36209 4.23304 7.23968 3.45228 6.85422 2.80397L8.76324 2.14279C8.83218 2.11892 8.89215 2.0731 8.93464 2.01183C8.97713 1.95056 9 1.87694 9 1.80141C9 1.72587 8.97713 1.65225 8.93464 1.59098C8.89215 1.52971 8.83218 1.48389 8.76324 1.46002V1.45777ZM6.57687 4.31794C6.57696 4.65926 6.4992 4.99574 6.34997 5.29978C6.20074 5.60381 5.98429 5.86673 5.71838 6.06697C5.45247 6.2672 5.14468 6.39905 4.82026 6.45169C4.49584 6.50433 4.16404 6.47626 3.85207 6.36978C3.54011 6.26331 3.25688 6.08146 3.02561 5.83917C2.79435 5.59687 2.62165 5.30103 2.52167 4.97591C2.4217 4.6508 2.3973 4.30568 2.45048 3.96887C2.50366 3.63205 2.63291 3.31315 2.82762 3.03831L4.39049 3.57805C4.46155 3.60267 4.53837 3.60267 4.60943 3.57805L6.1723 3.03831C6.43526 3.40895 6.57704 3.85741 6.57687 4.31794Z" fill="#3F4F9D"/>
</svg>
